<svg width="24" height="27" viewBox="0 0 24 27" fill="none" xmlns="http://www.w3.org/2000/svg">
<path opacity="0.2" d="M20.25 4.95267V9.08003H3.75V4.95267C3.75 4.73374 3.82902 4.52378 3.96967 4.36897C4.11032 4.21417 4.30109 4.1272 4.5 4.1272H19.5C19.6989 4.1272 19.8897 4.21417 20.0303 4.36897C20.171 4.52378 20.25 4.73374 20.25 4.95267Z" fill="#D3A04A"/>
<path d="M19.5 3.30182H17.25V2.47635C17.25 2.25742 17.171 2.04746 17.0303 1.89265C16.8897 1.73785 16.6989 1.65088 16.5 1.65088C16.3011 1.65088 16.1103 1.73785 15.9697 1.89265C15.829 2.04746 15.75 2.25742 15.75 2.47635V3.30182H8.25V2.47635C8.25 2.25742 8.17098 2.04746 8.03033 1.89265C7.88968 1.73785 7.69891 1.65088 7.5 1.65088C7.30109 1.65088 7.11032 1.73785 6.96967 1.89265C6.82902 2.04746 6.75 2.25742 6.75 2.47635V3.30182H4.5C4.10218 3.30182 3.72064 3.47576 3.43934 3.78537C3.15804 4.09498 3 4.51491 3 4.95277V21.4622C3 21.9001 3.15804 22.32 3.43934 22.6296C3.72064 22.9392 4.10218 23.1131 4.5 23.1131H19.5C19.8978 23.1131 20.2794 22.9392 20.5607 22.6296C20.842 22.32 21 21.9001 21 21.4622V4.95277C21 4.51491 20.842 4.09498 20.5607 3.78537C20.2794 3.47576 19.8978 3.30182 19.5 3.30182ZM6.75 4.95277V5.77824C6.75 5.99717 6.82902 6.20713 6.96967 6.36193C7.11032 6.51674 7.30109 6.60371 7.5 6.60371C7.69891 6.60371 7.88968 6.51674 8.03033 6.36193C8.17098 6.20713 8.25 5.99717 8.25 5.77824V4.95277H15.75V5.77824C15.75 5.99717 15.829 6.20713 15.9697 6.36193C16.1103 6.51674 16.3011 6.60371 16.5 6.60371C16.6989 6.60371 16.8897 6.51674 17.0303 6.36193C17.171 6.20713 17.25 5.99717 17.25 5.77824V4.95277H19.5V8.25465H4.5V4.95277H6.75ZM19.5 21.4622H4.5V9.90559H19.5V21.4622ZM10.5 12.382V18.9858C10.5 19.2047 10.421 19.4147 10.2803 19.5695C10.1397 19.7243 9.94891 19.8113 9.75 19.8113C9.55109 19.8113 9.36032 19.7243 9.21967 19.5695C9.07902 19.4147 9 19.2047 9 18.9858V13.7172L8.58563 13.9463C8.4076 14.0442 8.2015 14.0604 8.01268 13.9911C7.82385 13.9218 7.66776 13.7728 7.57875 13.5769C7.48974 13.3809 7.47509 13.1541 7.53803 12.9463C7.60097 12.7385 7.73635 12.5667 7.91437 12.4687L9.41437 11.6432C9.52876 11.5802 9.65589 11.5505 9.78367 11.5568C9.91145 11.5631 10.0356 11.6053 10.1444 11.6793C10.2532 11.7534 10.343 11.8568 10.4052 11.9798C10.4675 12.1028 10.5001 12.2412 10.5 12.382ZM16.0463 15.524L14.25 18.1603H15.75C15.9489 18.1603 16.1397 18.2473 16.2803 18.4021C16.421 18.5569 16.5 18.7669 16.5 18.9858C16.5 19.2047 16.421 19.4147 16.2803 19.5695C16.1397 19.7243 15.9489 19.8113 15.75 19.8113H12.75C12.6107 19.8113 12.4742 19.7686 12.3557 19.688C12.2372 19.6074 12.1415 19.4921 12.0792 19.3549C12.0169 19.2178 11.9905 19.0643 12.003 18.9116C12.0155 18.759 12.0664 18.6131 12.15 18.4905L14.8481 14.5313C14.9095 14.4414 14.9535 14.3386 14.9775 14.2293C15.0015 14.12 15.0049 14.0064 14.9876 13.8956C14.9703 13.7847 14.9325 13.679 14.8767 13.5848C14.8209 13.4905 14.7482 13.4099 14.6631 13.3477C14.5779 13.2855 14.4821 13.2432 14.3816 13.2232C14.281 13.2032 14.1778 13.2061 14.0783 13.2316C13.9788 13.2571 13.885 13.3048 13.8028 13.3716C13.7206 13.4384 13.6517 13.523 13.6003 13.6202C13.5525 13.7171 13.4876 13.8024 13.4093 13.8712C13.3311 13.94 13.2411 13.9909 13.1447 14.0208C13.0483 14.0507 12.9474 14.0591 12.8481 14.0454C12.7487 14.0317 12.6528 13.9962 12.5661 13.9411C12.4794 13.886 12.4035 13.8123 12.3431 13.7244C12.2827 13.6365 12.2389 13.5361 12.2142 13.4293C12.1896 13.3224 12.1847 13.2112 12.1997 13.1023C12.2148 12.9933 12.2495 12.8887 12.3019 12.7947C12.5496 12.3229 12.9319 11.9541 13.3894 11.7457C13.8469 11.5372 14.3541 11.5007 14.8324 11.6418C15.3107 11.7828 15.7333 12.0936 16.0348 12.5259C16.3363 12.9582 16.4998 13.488 16.5 14.033C16.5016 14.5713 16.3421 15.0953 16.0463 15.524Z" fill="#D3A04A"/>
</svg>
