<svg width="15" height="13" viewBox="0 0 15 13" fill="none" xmlns="http://www.w3.org/2000/svg">
<path d="M7.49994 0.875C10.87 0.875 13.6738 3.29985 14.2616 6.5C13.6738 9.70012 10.87 12.125 7.49994 12.125C4.12983 12.125 1.3261 9.70012 0.738281 6.5C1.3261 3.29985 4.12983 0.875 7.49994 0.875ZM7.49994 10.875C10.1472 10.875 12.4124 9.0325 12.9858 6.5C12.4124 3.96752 10.1472 2.125 7.49994 2.125C4.85263 2.125 2.58739 3.96752 2.01399 6.5C2.58739 9.0325 4.85263 10.875 7.49994 10.875ZM7.49994 9.3125C5.94662 9.3125 4.68742 8.05331 4.68742 6.5C4.68742 4.9467 5.94662 3.6875 7.49994 3.6875C9.05319 3.6875 10.3124 4.9467 10.3124 6.5C10.3124 8.05331 9.05319 9.3125 7.49994 9.3125ZM7.49994 8.0625C8.36288 8.0625 9.06244 7.36294 9.06244 6.5C9.06244 5.63706 8.36288 4.9375 7.49994 4.9375C6.63701 4.9375 5.93742 5.63706 5.93742 6.5C5.93742 7.36294 6.63701 8.0625 7.49994 8.0625Z" fill="#A4A3A4"/>
</svg>
